<?xml version="1.0" encoding="utf-8"?>
<!-- Generator: Adobe Illustrator 28.0.0, SVG Export Plug-In . SVG Version: 6.00 Build 0)  -->
<svg version="1.1" id="Layer_1" xmlns="http://www.w3.org/2000/svg" xmlns:xlink="http://www.w3.org/1999/xlink" x="0px" y="0px"
	 viewBox="0 0 512 512" style="enable-background:new 0 0 512 512;" xml:space="preserve">
<style type="text/css">
	.st0{stroke:#000000;stroke-miterlimit:10;}
</style>
<path class="st0" d="M186.21,0.98c-1.86,3.24,22.9,11.87,28.23,35.01c4.99,21.64-10,43.12-16.94,53.07
	c-17.33,24.85-32.36,24.96-45.79,51.84c-2.9,5.8-6.97,14.19-8.38,25.96c-3.01,25.22,8.57,44.84,11.52,49.67
	c20.79,34.1,59.92,38.04,60.72,36.12c0.67-1.59-24.7-8.46-28.27-27.09c-2.62-13.72,7.9-26.9,12.56-32.73
	c3.78-4.73,7.32-7.78,10.93-10.72c19.36-15.8,30.18-20.63,38.96-27.39c16.69-12.85,28.23-34.39,30.17-55.49
	c2.27-24.59-8.98-43.41-13.55-50.81C240.76,6.85,188.81-3.55,186.21,0.98z"/>
<path class="st0" d="M236.64,250.86c-8.33-5.64-4.94-22.91-4.45-25.41c4.5-22.94,26.84-33.85,34.7-37.68
	c15.08-7.36,23.78-5,25.8-4.38c2.95,0.9,6.79,2.07,8.9,5.26c6.54,9.89-8.72,31.45-22.24,43.81c-7.33,6.7-13.11,11.4-19.68,14.48
	C252.51,250.29,242.74,254.98,236.64,250.86z"/>
<path class="st0" d="M283.17,247.72c0.25,2.18,40.52,6.74,79.48-11.09c29.24-13.38,42.42-29.81,45.81-34.34
	c5.95-7.94,15.35-20.81,16.4-39.26c0.84-14.86-4.08-26.3-6.33-31.34c-12.07-27.09-31.59-28.08-32.83-46.63
	c-0.94-14.03,9.26-27.91,11.02-30.31c6.49-8.83,13.1-12.12,12.39-13.31c-1.26-2.11-24.27,4.73-42.32,22.18
	c-7.56,7.3-22.5,21.74-22.7,41.09c-0.17,15.53,8.93,18.59,12.59,37.54c4.14,21.46-3.41,39.66-6.99,48.29
	c-1.62,3.9-17.48,40.68-52.48,53.1C288.81,246.63,283.08,246.87,283.17,247.72z"/>
<path class="st0" d="M250.79,274.52c-1.8-4.27-21.53-0.73-27.79,0.39c-17.49,3.13-41.36,7.4-68.01,23.61
	c-14.14,8.6-43.78,26.62-59.63,62.8c-4.79,10.94-20.55,51.52,0,94.06c5.09,10.55,17.67,36.59,48.15,49.15
	c30.24,12.47,77.7,11.5,102.26-19.66c19.26-24.45,18.55-60,3.91-78.46c-4.38-5.52-8.59-7.73-15.07-17.3
	c-10.98-16.21-13.72-31.82-14.42-36.54c-0.9-6.03-6.22-41.5,15.81-63.72C243.53,281.25,252.03,277.46,250.79,274.52z"/>
<path class="st0" d="M189.29,263.28c0.81-2.21-22.72-18.85-54.22-21.84c-10.75-1.02-35.06-3.1-56.78,11.93
	c-7.66,5.3-25.4,17.58-24.18,35.19c0.78,11.27,9.25,23.34,20.54,25.98c9.76,2.28,18.41-3.16,23.97-6.66
	c9.82-6.18,9.01-10.24,27.21-28.86c6.97-7.13,11.55-11.1,18.35-13.91c1.33-0.55,6.17-2.47,15.18-3.36
	C177.55,259.93,188.75,264.73,189.29,263.28z"/>
<path class="st0" d="M280.24,271.98c-0.03-4.1,32.1-11.02,64.93-8.25c16.78,1.42,41.8,3.68,66.59,20.74
	c17.65,12.15,27.03,26.18,29.76,30.47c13.71,21.57,15.23,42.24,15.87,52.55c0.82,13.12,1.39,22.15-3.08,32.92
	c-0.61,1.46-13.79,31.77-44.01,34.5c-25.66,2.32-42.97-17.12-46.74-21.68c-9.78-11.85-12.33-25.22-15.35-41.08
	c-3.22-16.92-0.56-19.74-4.55-35.45c-2.48-9.77-5.37-21.12-14.27-33.03c-3.27-4.37-14.45-18.38-33.8-26.18
	C285.89,273.57,280.25,273.69,280.24,271.98z"/>
</svg>
